<?xml version="1.0" encoding="UTF-8"?><svg xmlns="http://www.w3.org/2000/svg" xmlns:xlink="http://www.w3.org/1999/xlink" contentScriptType="text/ecmascript" width="150" zoomAndPan="magnify" contentStyleType="text/css" viewBox="0 0 150 149.999998" height="149.999998" preserveAspectRatio="xMidYMid meet" version="1.0"><defs><clipPath id="clip-0"><path d="M 45.132812 74 L 105.132812 74 L 105.132812 104.183594 L 45.132812 104.183594 Z M 45.132812 74 " clip-rule="nonzero"/></clipPath><clipPath id="clip-1"><path d="M 58.539062 124.335938 L 91.929688 124.335938 L 91.929688 130.464844 L 58.539062 130.464844 Z M 58.539062 124.335938 " clip-rule="nonzero"/></clipPath><clipPath id="clip-2"><path d="M 72.453125 124.335938 L 77.765625 124.335938 L 77.765625 130.464844 L 72.453125 130.464844 Z M 72.453125 124.335938 " clip-rule="nonzero"/></clipPath><clipPath id="clip-3"><path d="M 56 19.507812 L 94 19.507812 L 94 94 L 56 94 Z M 56 19.507812 " clip-rule="nonzero"/></clipPath><clipPath id="clip-4"><path d="M 59 19.507812 L 93 19.507812 L 93 93 L 59 93 Z M 59 19.507812 " clip-rule="nonzero"/></clipPath></defs><g clip-path="url(#clip-0)"><path fill="rgb(43.139648%, 35.289001%, 88.62915%)" d="M 102.609375 74.183594 C 101.300781 74.183594 100.210938 75.183594 100.089844 76.480469 C 99 88.335938 89.542969 97.816406 77.667969 99.007812 L 77.667969 104.066406 C 92.195312 102.859375 103.824219 91.339844 105.132812 76.90625 C 105.265625 75.4375 104.085938 74.183594 102.609375 74.183594 Z M 72.609375 104.066406 C 58.082031 102.859375 46.453125 91.339844 45.144531 76.90625 C 45.011719 75.4375 46.191406 74.183594 47.667969 74.183594 C 48.976562 74.183594 50.066406 75.183594 50.1875 76.480469 C 51.277344 88.335938 60.734375 97.816406 72.609375 99.007812 L 72.609375 104.066406 " fill-opacity="1" fill-rule="nonzero"/></g><path fill="rgb(90.979004%, 41.569519%, 65.489197%)" d="M 77.667969 99.390625 L 77.667969 124.570312 L 72.609375 124.570312 L 72.609375 99.390625 L 77.667969 99.390625 " fill-opacity="1" fill-rule="nonzero"/><g clip-path="url(#clip-1)"><path fill="rgb(100%, 65.879822%, 86.268616%)" d="M 91.730469 127.089844 L 91.730469 127.945312 C 91.730469 129.335938 90.597656 130.464844 89.199219 130.464844 L 61.078125 130.464844 C 59.679688 130.464844 58.546875 129.335938 58.546875 127.945312 L 58.546875 127.089844 C 58.546875 125.699219 59.679688 124.570312 61.078125 124.570312 L 72.609375 124.570312 L 72.609375 130.464844 L 77.667969 130.464844 L 77.667969 124.570312 L 89.199219 124.570312 C 90.597656 124.570312 91.730469 125.699219 91.730469 127.089844 " fill-opacity="1" fill-rule="nonzero"/></g><path fill="rgb(100%, 65.879822%, 86.268616%)" d="M 77.667969 99.011719 L 77.667969 104.066406 C 76.832031 104.136719 75.992188 104.175781 75.136719 104.175781 C 74.285156 104.175781 73.445312 104.136719 72.609375 104.066406 L 72.609375 99.011719 C 73.441406 99.09375 74.285156 99.136719 75.136719 99.136719 C 75.992188 99.136719 76.835938 99.09375 77.667969 99.011719 " fill-opacity="1" fill-rule="nonzero"/><g clip-path="url(#clip-2)"><path fill="rgb(90.979004%, 41.569519%, 65.489197%)" d="M 77.667969 124.570312 L 77.667969 130.464844 L 72.609375 130.464844 L 72.609375 124.570312 L 77.667969 124.570312 " fill-opacity="1" fill-rule="nonzero"/></g><g clip-path="url(#clip-3)"><path fill="rgb(90.979004%, 41.569519%, 65.489197%)" d="M 75.136719 93.960938 C 64.898438 93.960938 56.601562 85.695312 56.601562 75.5 L 56.601562 38.015625 C 56.601562 27.820312 64.898438 19.554688 75.136719 19.554688 C 85.378906 19.554688 93.675781 27.820312 93.675781 38.015625 L 93.675781 75.5 C 93.675781 85.695312 85.378906 93.960938 75.136719 93.960938 " fill-opacity="1" fill-rule="nonzero"/></g><path fill="rgb(100%, 65.879822%, 86.268616%)" d="M 75.136719 93.960938 C 64.898438 93.960938 56.601562 85.695312 56.601562 75.5 L 56.601562 70.84375 C 59.105469 69.621094 62.007812 68.816406 65.378906 68.605469 C 88.886719 67.140625 80.144531 51.335938 88.015625 36.429688 C 89.195312 34.191406 90.636719 32.359375 92.230469 30.859375 C 93.164062 33.058594 93.675781 35.476562 93.675781 38.015625 L 93.675781 75.5 C 93.675781 85.695312 85.378906 93.960938 75.136719 93.960938 " fill-opacity="1" fill-rule="nonzero"/><g clip-path="url(#clip-4)"><path fill="rgb(97.24884%, 91.758728%, 100%)" d="M 60.304688 49.007812 C 59.714844 49.007812 59.242188 49.476562 59.242188 50.0625 C 59.242188 50.644531 59.714844 51.117188 60.304688 51.117188 C 60.886719 51.117188 61.363281 50.644531 61.363281 50.0625 C 61.363281 49.476562 60.886719 49.007812 60.304688 49.007812 Z M 65.402344 49.007812 C 64.816406 49.007812 64.34375 49.476562 64.34375 50.0625 C 64.34375 50.644531 64.816406 51.117188 65.402344 51.117188 C 65.988281 51.117188 66.460938 50.644531 66.460938 50.0625 C 66.460938 49.476562 65.988281 49.007812 65.402344 49.007812 Z M 60.304688 54.085938 C 59.714844 54.085938 59.242188 54.558594 59.242188 55.140625 C 59.242188 55.726562 59.714844 56.195312 60.304688 56.195312 C 60.886719 56.195312 61.363281 55.726562 61.363281 55.140625 C 61.363281 54.558594 60.886719 54.085938 60.304688 54.085938 Z M 65.402344 54.085938 C 64.816406 54.085938 64.34375 54.558594 64.34375 55.140625 C 64.34375 55.726562 64.816406 56.195312 65.402344 56.195312 C 65.988281 56.195312 66.460938 55.726562 66.460938 55.140625 C 66.460938 54.558594 65.988281 54.085938 65.402344 54.085938 Z M 60.304688 59.164062 C 59.714844 59.164062 59.242188 59.636719 59.242188 60.21875 C 59.242188 60.800781 59.714844 61.277344 60.304688 61.277344 C 60.886719 61.277344 61.363281 60.800781 61.363281 60.21875 C 61.363281 59.636719 60.886719 59.164062 60.304688 59.164062 Z M 65.402344 59.164062 C 64.816406 59.164062 64.34375 59.636719 64.34375 60.21875 C 64.34375 60.800781 64.816406 61.277344 65.402344 61.277344 C 65.988281 61.277344 66.460938 60.800781 66.460938 60.21875 C 66.460938 59.636719 65.988281 59.164062 65.402344 59.164062 Z M 60.304688 64.433594 C 59.714844 64.433594 59.242188 64.90625 59.242188 65.488281 C 59.242188 66.070312 59.714844 66.542969 60.304688 66.542969 C 60.886719 66.542969 61.363281 66.070312 61.363281 65.488281 C 61.363281 64.90625 60.886719 64.433594 60.304688 64.433594 Z M 65.402344 64.433594 C 64.816406 64.433594 64.34375 64.90625 64.34375 65.488281 C 64.34375 66.070312 64.816406 66.542969 65.402344 66.542969 C 65.988281 66.542969 66.460938 66.070312 66.460938 65.488281 C 66.460938 64.90625 65.988281 64.433594 65.402344 64.433594 Z M 60.304688 69.511719 C 59.714844 69.511719 59.242188 69.984375 59.242188 70.566406 C 59.242188 71.148438 59.714844 71.621094 60.304688 71.621094 C 60.886719 71.621094 61.363281 71.148438 61.363281 70.566406 C 61.363281 69.984375 60.886719 69.511719 60.304688 69.511719 Z M 65.402344 69.511719 C 64.816406 69.511719 64.34375 69.984375 64.34375 70.566406 C 64.34375 71.148438 64.816406 71.621094 65.402344 71.621094 C 65.988281 71.621094 66.460938 71.148438 66.460938 70.566406 C 66.460938 69.984375 65.988281 69.511719 65.402344 69.511719 Z M 60.304688 74.589844 C 59.714844 74.589844 59.242188 75.0625 59.242188 75.644531 C 59.242188 76.230469 59.714844 76.699219 60.304688 76.699219 C 60.886719 76.699219 61.363281 76.230469 61.363281 75.644531 C 61.363281 75.0625 60.886719 74.589844 60.304688 74.589844 Z M 65.402344 74.589844 C 64.816406 74.589844 64.34375 75.0625 64.34375 75.644531 C 64.34375 76.230469 64.816406 76.699219 65.402344 76.699219 C 65.988281 76.699219 66.460938 76.230469 66.460938 75.644531 C 66.460938 75.0625 65.988281 74.589844 65.402344 74.589844 Z M 60.304688 79.859375 C 59.714844 79.859375 59.242188 80.328125 59.242188 80.914062 C 59.242188 81.496094 59.714844 81.96875 60.304688 81.96875 C 60.886719 81.96875 61.363281 81.496094 61.363281 80.914062 C 61.363281 80.328125 60.886719 79.859375 60.304688 79.859375 Z M 65.402344 79.859375 C 64.816406 79.859375 64.34375 80.328125 64.34375 80.914062 C 64.34375 81.496094 64.816406 81.96875 65.402344 81.96875 C 65.988281 81.96875 66.460938 81.496094 66.460938 80.914062 C 66.460938 80.328125 65.988281 79.859375 65.402344 79.859375 Z M 70.695312 49.007812 C 70.105469 49.007812 69.632812 49.476562 69.632812 50.0625 C 69.632812 50.644531 70.105469 51.117188 70.695312 51.117188 C 71.277344 51.117188 71.753906 50.644531 71.753906 50.0625 C 71.753906 49.476562 71.277344 49.007812 70.695312 49.007812 Z M 75.792969 49.007812 C 75.210938 49.007812 74.734375 49.476562 74.734375 50.0625 C 74.734375 50.644531 75.210938 51.117188 75.792969 51.117188 C 76.378906 51.117188 76.855469 50.644531 76.855469 50.0625 C 76.855469 49.476562 76.378906 49.007812 75.792969 49.007812 Z M 80.894531 49.007812 C 80.308594 49.007812 79.835938 49.476562 79.835938 50.0625 C 79.835938 50.644531 80.308594 51.117188 80.894531 51.117188 C 81.480469 51.117188 81.957031 50.644531 81.957031 50.0625 C 81.957031 49.476562 81.480469 49.007812 80.894531 49.007812 Z M 70.695312 54.085938 C 70.105469 54.085938 69.632812 54.558594 69.632812 55.140625 C 69.632812 55.726562 70.105469 56.195312 70.695312 56.195312 C 71.277344 56.195312 71.753906 55.726562 71.753906 55.140625 C 71.753906 54.558594 71.277344 54.085938 70.695312 54.085938 Z M 75.792969 54.085938 C 75.210938 54.085938 74.734375 54.558594 74.734375 55.140625 C 74.734375 55.726562 75.210938 56.195312 75.792969 56.195312 C 76.378906 56.195312 76.855469 55.726562 76.855469 55.140625 C 76.855469 54.558594 76.378906 54.085938 75.792969 54.085938 Z M 80.894531 54.085938 C 80.308594 54.085938 79.835938 54.558594 79.835938 55.140625 C 79.835938 55.726562 80.308594 56.195312 80.894531 56.195312 C 81.480469 56.195312 81.957031 55.726562 81.957031 55.140625 C 81.957031 54.558594 81.480469 54.085938 80.894531 54.085938 Z M 70.695312 59.164062 C 70.105469 59.164062 69.632812 59.636719 69.632812 60.21875 C 69.632812 60.800781 70.105469 61.277344 70.695312 61.277344 C 71.277344 61.277344 71.753906 60.800781 71.753906 60.21875 C 71.753906 59.636719 71.277344 59.164062 70.695312 59.164062 Z M 75.792969 59.164062 C 75.210938 59.164062 74.734375 59.636719 74.734375 60.21875 C 74.734375 60.800781 75.210938 61.277344 75.792969 61.277344 C 76.378906 61.277344 76.855469 60.800781 76.855469 60.21875 C 76.855469 59.636719 76.378906 59.164062 75.792969 59.164062 Z M 80.894531 59.164062 C 80.308594 59.164062 79.835938 59.636719 79.835938 60.21875 C 79.835938 60.800781 80.308594 61.277344 80.894531 61.277344 C 81.480469 61.277344 81.957031 60.800781 81.957031 60.21875 C 81.957031 59.636719 81.480469 59.164062 80.894531 59.164062 Z M 70.695312 64.433594 C 70.105469 64.433594 69.632812 64.90625 69.632812 65.488281 C 69.632812 66.070312 70.105469 66.542969 70.695312 66.542969 C 71.277344 66.542969 71.753906 66.070312 71.753906 65.488281 C 71.753906 64.90625 71.277344 64.433594 70.695312 64.433594 Z M 75.792969 64.433594 C 75.210938 64.433594 74.734375 64.90625 74.734375 65.488281 C 74.734375 66.070312 75.210938 66.542969 75.792969 66.542969 C 76.378906 66.542969 76.855469 66.070312 76.855469 65.488281 C 76.855469 64.90625 76.378906 64.433594 75.792969 64.433594 Z M 80.894531 64.433594 C 80.308594 64.433594 79.835938 64.90625 79.835938 65.488281 C 79.835938 66.070312 80.308594 66.542969 80.894531 66.542969 C 81.480469 66.542969 81.957031 66.070312 81.957031 65.488281 C 81.957031 64.90625 81.480469 64.433594 80.894531 64.433594 Z M 70.695312 69.511719 C 70.105469 69.511719 69.632812 69.984375 69.632812 70.566406 C 69.632812 71.148438 70.105469 71.621094 70.695312 71.621094 C 71.277344 71.621094 71.753906 71.148438 71.753906 70.566406 C 71.753906 69.984375 71.277344 69.511719 70.695312 69.511719 Z M 75.792969 69.511719 C 75.210938 69.511719 74.734375 69.984375 74.734375 70.566406 C 74.734375 71.148438 75.210938 71.621094 75.792969 71.621094 C 76.378906 71.621094 76.855469 71.148438 76.855469 70.566406 C 76.855469 69.984375 76.378906 69.511719 75.792969 69.511719 Z M 80.894531 69.511719 C 80.308594 69.511719 79.835938 69.984375 79.835938 70.566406 C 79.835938 71.148438 80.308594 71.621094 80.894531 71.621094 C 81.480469 71.621094 81.957031 71.148438 81.957031 70.566406 C 81.957031 69.984375 81.480469 69.511719 80.894531 69.511719 Z M 70.695312 74.589844 C 70.105469 74.589844 69.632812 75.0625 69.632812 75.644531 C 69.632812 76.230469 70.105469 76.699219 70.695312 76.699219 C 71.277344 76.699219 71.753906 76.230469 71.753906 75.644531 C 71.753906 75.0625 71.277344 74.589844 70.695312 74.589844 Z M 75.792969 74.589844 C 75.210938 74.589844 74.734375 75.0625 74.734375 75.644531 C 74.734375 76.230469 75.210938 76.699219 75.792969 76.699219 C 76.378906 76.699219 76.855469 76.230469 76.855469 75.644531 C 76.855469 75.0625 76.378906 74.589844 75.792969 74.589844 Z M 80.894531 74.589844 C 80.308594 74.589844 79.835938 75.0625 79.835938 75.644531 C 79.835938 76.230469 80.308594 76.699219 80.894531 76.699219 C 81.480469 76.699219 81.957031 76.230469 81.957031 75.644531 C 81.957031 75.0625 81.480469 74.589844 80.894531 74.589844 Z M 70.695312 79.859375 C 70.105469 79.859375 69.632812 80.328125 69.632812 80.914062 C 69.632812 81.496094 70.105469 81.96875 70.695312 81.96875 C 71.277344 81.96875 71.753906 81.496094 71.753906 80.914062 C 71.753906 80.328125 71.277344 79.859375 70.695312 79.859375 Z M 75.792969 79.859375 C 75.210938 79.859375 74.734375 80.328125 74.734375 80.914062 C 74.734375 81.496094 75.210938 81.96875 75.792969 81.96875 C 76.378906 81.96875 76.855469 81.496094 76.855469 80.914062 C 76.855469 80.328125 76.378906 79.859375 75.792969 79.859375 Z M 80.894531 79.859375 C 80.308594 79.859375 79.835938 80.328125 79.835938 80.914062 C 79.835938 81.496094 80.308594 81.96875 80.894531 81.96875 C 81.480469 81.96875 81.957031 81.496094 81.957031 80.914062 C 81.957031 80.328125 81.480469 79.859375 80.894531 79.859375 Z M 70.695312 84.9375 C 70.105469 84.9375 69.632812 85.410156 69.632812 85.992188 C 69.632812 86.574219 70.105469 87.046875 70.695312 87.046875 C 71.277344 87.046875 71.753906 86.574219 71.753906 85.992188 C 71.753906 85.410156 71.277344 84.9375 70.695312 84.9375 Z M 65.402344 84.9375 C 64.816406 84.9375 64.34375 85.410156 64.34375 85.992188 C 64.34375 86.574219 64.816406 87.046875 65.402344 87.046875 C 65.988281 87.046875 66.460938 86.574219 66.460938 85.992188 C 66.460938 85.410156 65.988281 84.9375 65.402344 84.9375 Z M 75.792969 84.9375 C 75.210938 84.9375 74.734375 85.410156 74.734375 85.992188 C 74.734375 86.574219 75.210938 87.046875 75.792969 87.046875 C 76.378906 87.046875 76.855469 86.574219 76.855469 85.992188 C 76.855469 85.410156 76.378906 84.9375 75.792969 84.9375 Z M 80.894531 84.9375 C 80.308594 84.9375 79.835938 85.410156 79.835938 85.992188 C 79.835938 86.574219 80.308594 87.046875 80.894531 87.046875 C 81.480469 87.046875 81.957031 86.574219 81.957031 85.992188 C 81.957031 85.410156 81.480469 84.9375 80.894531 84.9375 Z M 70.695312 90.015625 C 70.105469 90.015625 69.632812 90.488281 69.632812 91.070312 C 69.632812 91.652344 70.105469 92.128906 70.695312 92.128906 C 71.277344 92.128906 71.753906 91.652344 71.753906 91.070312 C 71.753906 90.488281 71.277344 90.015625 70.695312 90.015625 Z M 75.792969 90.015625 C 75.210938 90.015625 74.734375 90.488281 74.734375 91.070312 C 74.734375 91.652344 75.210938 92.128906 75.792969 92.128906 C 76.378906 92.128906 76.855469 91.652344 76.855469 91.070312 C 76.855469 90.488281 76.378906 90.015625 75.792969 90.015625 Z M 80.894531 90.015625 C 80.308594 90.015625 79.835938 90.488281 79.835938 91.070312 C 79.835938 91.652344 80.308594 92.128906 80.894531 92.128906 C 81.480469 92.128906 81.957031 91.652344 81.957031 91.070312 C 81.957031 90.488281 81.480469 90.015625 80.894531 90.015625 Z M 86.183594 49.007812 C 85.601562 49.007812 85.125 49.476562 85.125 50.0625 C 85.125 50.644531 85.601562 51.117188 86.183594 51.117188 C 86.769531 51.117188 87.246094 50.644531 87.246094 50.0625 C 87.246094 49.476562 86.769531 49.007812 86.183594 49.007812 Z M 91.285156 49.007812 C 90.699219 49.007812 90.222656 49.476562 90.222656 50.0625 C 90.222656 50.644531 90.699219 51.117188 91.285156 51.117188 C 91.871094 51.117188 92.347656 50.644531 92.347656 50.0625 C 92.347656 49.476562 91.871094 49.007812 91.285156 49.007812 Z M 86.183594 54.085938 C 85.601562 54.085938 85.125 54.558594 85.125 55.140625 C 85.125 55.726562 85.601562 56.195312 86.183594 56.195312 C 86.769531 56.195312 87.246094 55.726562 87.246094 55.140625 C 87.246094 54.558594 86.769531 54.085938 86.183594 54.085938 Z M 91.285156 54.085938 C 90.699219 54.085938 90.222656 54.558594 90.222656 55.140625 C 90.222656 55.726562 90.699219 56.195312 91.285156 56.195312 C 91.871094 56.195312 92.347656 55.726562 92.347656 55.140625 C 92.347656 54.558594 91.871094 54.085938 91.285156 54.085938 Z M 86.183594 59.164062 C 85.601562 59.164062 85.125 59.636719 85.125 60.21875 C 85.125 60.800781 85.601562 61.277344 86.183594 61.277344 C 86.769531 61.277344 87.246094 60.800781 87.246094 60.21875 C 87.246094 59.636719 86.769531 59.164062 86.183594 59.164062 Z M 91.285156 59.164062 C 90.699219 59.164062 90.222656 59.636719 90.222656 60.21875 C 90.222656 60.800781 90.699219 61.277344 91.285156 61.277344 C 91.871094 61.277344 92.347656 60.800781 92.347656 60.21875 C 92.347656 59.636719 91.871094 59.164062 91.285156 59.164062 Z M 86.183594 64.433594 C 85.601562 64.433594 85.125 64.90625 85.125 65.488281 C 85.125 66.070312 85.601562 66.542969 86.183594 66.542969 C 86.769531 66.542969 87.246094 66.070312 87.246094 65.488281 C 87.246094 64.90625 86.769531 64.433594 86.183594 64.433594 Z M 91.285156 64.433594 C 90.699219 64.433594 90.222656 64.90625 90.222656 65.488281 C 90.222656 66.070312 90.699219 66.542969 91.285156 66.542969 C 91.871094 66.542969 92.347656 66.070312 92.347656 65.488281 C 92.347656 64.90625 91.871094 64.433594 91.285156 64.433594 Z M 86.183594 69.511719 C 85.601562 69.511719 85.125 69.984375 85.125 70.566406 C 85.125 71.148438 85.601562 71.621094 86.183594 71.621094 C 86.769531 71.621094 87.246094 71.148438 87.246094 70.566406 C 87.246094 69.984375 86.769531 69.511719 86.183594 69.511719 Z M 91.285156 69.511719 C 90.699219 69.511719 90.222656 69.984375 90.222656 70.566406 C 90.222656 71.148438 90.699219 71.621094 91.285156 71.621094 C 91.871094 71.621094 92.347656 71.148438 92.347656 70.566406 C 92.347656 69.984375 91.871094 69.511719 91.285156 69.511719 Z M 86.183594 74.589844 C 85.601562 74.589844 85.125 75.0625 85.125 75.644531 C 85.125 76.230469 85.601562 76.699219 86.183594 76.699219 C 86.769531 76.699219 87.246094 76.230469 87.246094 75.644531 C 87.246094 75.0625 86.769531 74.589844 86.183594 74.589844 Z M 91.285156 74.589844 C 90.699219 74.589844 90.222656 75.0625 90.222656 75.644531 C 90.222656 76.230469 90.699219 76.699219 91.285156 76.699219 C 91.871094 76.699219 92.347656 76.230469 92.347656 75.644531 C 92.347656 75.0625 91.871094 74.589844 91.285156 74.589844 Z M 86.183594 79.859375 C 85.601562 79.859375 85.125 80.328125 85.125 80.914062 C 85.125 81.496094 85.601562 81.96875 86.183594 81.96875 C 86.769531 81.96875 87.246094 81.496094 87.246094 80.914062 C 87.246094 80.328125 86.769531 79.859375 86.183594 79.859375 Z M 91.285156 79.859375 C 90.699219 79.859375 90.222656 80.328125 90.222656 80.914062 C 90.222656 81.496094 90.699219 81.96875 91.285156 81.96875 C 91.871094 81.96875 92.347656 81.496094 92.347656 80.914062 C 92.347656 80.328125 91.871094 79.859375 91.285156 79.859375 Z M 86.183594 84.9375 C 85.601562 84.9375 85.125 85.410156 85.125 85.992188 C 85.125 86.574219 85.601562 87.046875 86.183594 87.046875 C 86.769531 87.046875 87.246094 86.574219 87.246094 85.992188 C 87.246094 85.410156 86.769531 84.9375 86.183594 84.9375 Z M 90.222656 85.992188 C 90.222656 86.066406 90.230469 86.136719 90.246094 86.203125 C 90.53125 85.800781 90.804688 85.386719 91.058594 84.960938 C 90.582031 85.066406 90.222656 85.488281 90.222656 85.992188 Z M 86.183594 90.015625 C 85.605469 90.015625 85.132812 90.480469 85.125 91.058594 C 85.605469 90.75 86.070312 90.421875 86.519531 90.074219 C 86.414062 90.035156 86.304688 90.015625 86.183594 90.015625 Z M 65.402344 23.464844 C 64.816406 23.464844 64.34375 23.9375 64.34375 24.519531 C 64.34375 25.101562 64.816406 25.578125 65.402344 25.578125 C 65.988281 25.578125 66.460938 25.101562 66.460938 24.519531 C 66.460938 23.9375 65.988281 23.464844 65.402344 23.464844 Z M 60.304688 28.542969 C 59.714844 28.542969 59.242188 29.015625 59.242188 29.597656 C 59.242188 30.183594 59.714844 30.652344 60.304688 30.652344 C 60.886719 30.652344 61.363281 30.183594 61.363281 29.597656 C 61.363281 29.015625 60.886719 28.542969 60.304688 28.542969 Z M 65.402344 28.542969 C 64.816406 28.542969 64.34375 29.015625 64.34375 29.597656 C 64.34375 30.183594 64.816406 30.652344 65.402344 30.652344 C 65.988281 30.652344 66.460938 30.183594 66.460938 29.597656 C 66.460938 29.015625 65.988281 28.542969 65.402344 28.542969 Z M 60.304688 33.8125 C 59.714844 33.8125 59.242188 34.285156 59.242188 34.867188 C 59.242188 35.449219 59.714844 35.921875 60.304688 35.921875 C 60.886719 35.921875 61.363281 35.449219 61.363281 34.867188 C 61.363281 34.285156 60.886719 33.8125 60.304688 33.8125 Z M 65.402344 33.8125 C 64.816406 33.8125 64.34375 34.285156 64.34375 34.867188 C 64.34375 35.449219 64.816406 35.921875 65.402344 35.921875 C 65.988281 35.921875 66.460938 35.449219 66.460938 34.867188 C 66.460938 34.285156 65.988281 33.8125 65.402344 33.8125 Z M 60.304688 38.890625 C 59.714844 38.890625 59.242188 39.363281 59.242188 39.945312 C 59.242188 40.527344 59.714844 41 60.304688 41 C 60.886719 41 61.363281 40.527344 61.363281 39.945312 C 61.363281 39.363281 60.886719 38.890625 60.304688 38.890625 Z M 60.304688 43.96875 C 59.714844 43.96875 59.242188 44.441406 59.242188 45.023438 C 59.242188 45.605469 59.714844 46.082031 60.304688 46.082031 C 60.886719 46.082031 61.363281 45.605469 61.363281 45.023438 C 61.363281 44.441406 60.886719 43.96875 60.304688 43.96875 Z M 65.402344 43.96875 C 64.816406 43.96875 64.34375 44.441406 64.34375 45.023438 C 64.34375 45.605469 64.816406 46.082031 65.402344 46.082031 C 65.988281 46.082031 66.460938 45.605469 66.460938 45.023438 C 66.460938 44.441406 65.988281 43.96875 65.402344 43.96875 Z M 70.03125 20.265625 C 70.214844 20.410156 70.445312 20.496094 70.695312 20.496094 C 71.117188 20.496094 71.488281 20.246094 71.65625 19.882812 C 71.105469 19.988281 70.5625 20.117188 70.03125 20.265625 Z M 75.136719 19.554688 C 75.003906 19.554688 74.871094 19.558594 74.742188 19.5625 C 74.800781 20.085938 75.25 20.496094 75.792969 20.496094 C 76.3125 20.496094 76.746094 20.125 76.832031 19.636719 C 76.277344 19.582031 75.710938 19.554688 75.136719 19.554688 Z M 80.226562 20.257812 C 80.40625 20.40625 80.640625 20.496094 80.894531 20.496094 C 80.921875 20.496094 80.953125 20.496094 80.980469 20.492188 C 80.730469 20.40625 80.480469 20.332031 80.226562 20.257812 Z M 70.695312 23.464844 C 70.105469 23.464844 69.632812 23.9375 69.632812 24.519531 C 69.632812 25.101562 70.105469 25.578125 70.695312 25.578125 C 71.277344 25.578125 71.753906 25.101562 71.753906 24.519531 C 71.753906 23.9375 71.277344 23.464844 70.695312 23.464844 Z M 75.792969 23.464844 C 75.210938 23.464844 74.734375 23.9375 74.734375 24.519531 C 74.734375 25.101562 75.210938 25.578125 75.792969 25.578125 C 76.378906 25.578125 76.855469 25.101562 76.855469 24.519531 C 76.855469 23.9375 76.378906 23.464844 75.792969 23.464844 Z M 80.894531 23.464844 C 80.308594 23.464844 79.835938 23.9375 79.835938 24.519531 C 79.835938 25.101562 80.308594 25.578125 80.894531 25.578125 C 81.480469 25.578125 81.957031 25.101562 81.957031 24.519531 C 81.957031 23.9375 81.480469 23.464844 80.894531 23.464844 Z M 70.695312 28.542969 C 70.105469 28.542969 69.632812 29.015625 69.632812 29.597656 C 69.632812 30.183594 70.105469 30.652344 70.695312 30.652344 C 71.277344 30.652344 71.753906 30.183594 71.753906 29.597656 C 71.753906 29.015625 71.277344 28.542969 70.695312 28.542969 Z M 75.792969 28.542969 C 75.210938 28.542969 74.734375 29.015625 74.734375 29.597656 C 74.734375 30.183594 75.210938 30.652344 75.792969 30.652344 C 76.378906 30.652344 76.855469 30.183594 76.855469 29.597656 C 76.855469 29.015625 76.378906 28.542969 75.792969 28.542969 Z M 80.894531 28.542969 C 80.308594 28.542969 79.835938 29.015625 79.835938 29.597656 C 79.835938 30.183594 80.308594 30.652344 80.894531 30.652344 C 81.480469 30.652344 81.957031 30.183594 81.957031 29.597656 C 81.957031 29.015625 81.480469 28.542969 80.894531 28.542969 Z M 70.695312 33.8125 C 70.105469 33.8125 69.632812 34.285156 69.632812 34.867188 C 69.632812 35.449219 70.105469 35.921875 70.695312 35.921875 C 71.277344 35.921875 71.753906 35.449219 71.753906 34.867188 C 71.753906 34.285156 71.277344 33.8125 70.695312 33.8125 Z M 75.792969 33.8125 C 75.210938 33.8125 74.734375 34.285156 74.734375 34.867188 C 74.734375 35.449219 75.210938 35.921875 75.792969 35.921875 C 76.378906 35.921875 76.855469 35.449219 76.855469 34.867188 C 76.855469 34.285156 76.378906 33.8125 75.792969 33.8125 Z M 80.894531 33.8125 C 80.308594 33.8125 79.835938 34.285156 79.835938 34.867188 C 79.835938 35.449219 80.308594 35.921875 80.894531 35.921875 C 81.480469 35.921875 81.957031 35.449219 81.957031 34.867188 C 81.957031 34.285156 81.480469 33.8125 80.894531 33.8125 Z M 70.695312 38.890625 C 70.105469 38.890625 69.632812 39.363281 69.632812 39.945312 C 69.632812 40.527344 70.105469 41 70.695312 41 C 71.277344 41 71.753906 40.527344 71.753906 39.945312 C 71.753906 39.363281 71.277344 38.890625 70.695312 38.890625 Z M 65.402344 38.890625 C 64.816406 38.890625 64.34375 39.363281 64.34375 39.945312 C 64.34375 40.527344 64.816406 41 65.402344 41 C 65.988281 41 66.460938 40.527344 66.460938 39.945312 C 66.460938 39.363281 65.988281 38.890625 65.402344 38.890625 Z M 75.792969 38.890625 C 75.210938 38.890625 74.734375 39.363281 74.734375 39.945312 C 74.734375 40.527344 75.210938 41 75.792969 41 C 76.378906 41 76.855469 40.527344 76.855469 39.945312 C 76.855469 39.363281 76.378906 38.890625 75.792969 38.890625 Z M 80.894531 38.890625 C 80.308594 38.890625 79.835938 39.363281 79.835938 39.945312 C 79.835938 40.527344 80.308594 41 80.894531 41 C 81.480469 41 81.957031 40.527344 81.957031 39.945312 C 81.957031 39.363281 81.480469 38.890625 80.894531 38.890625 Z M 70.695312 43.96875 C 70.105469 43.96875 69.632812 44.441406 69.632812 45.023438 C 69.632812 45.605469 70.105469 46.082031 70.695312 46.082031 C 71.277344 46.082031 71.753906 45.605469 71.753906 45.023438 C 71.753906 44.441406 71.277344 43.96875 70.695312 43.96875 Z M 75.792969 43.96875 C 75.210938 43.96875 74.734375 44.441406 74.734375 45.023438 C 74.734375 45.605469 75.210938 46.082031 75.792969 46.082031 C 76.378906 46.082031 76.855469 45.605469 76.855469 45.023438 C 76.855469 44.441406 76.378906 43.96875 75.792969 43.96875 Z M 80.894531 43.96875 C 80.308594 43.96875 79.835938 44.441406 79.835938 45.023438 C 79.835938 45.605469 80.308594 46.082031 80.894531 46.082031 C 81.480469 46.082031 81.957031 45.605469 81.957031 45.023438 C 81.957031 44.441406 81.480469 43.96875 80.894531 43.96875 Z M 86.941406 23.78125 L 86.929688 23.773438 C 86.875 23.726562 86.816406 23.679688 86.761719 23.636719 C 86.59375 23.527344 86.398438 23.464844 86.183594 23.464844 C 85.601562 23.464844 85.125 23.9375 85.125 24.519531 C 85.125 25.101562 85.601562 25.578125 86.183594 25.578125 C 86.769531 25.578125 87.246094 25.101562 87.246094 24.519531 C 87.246094 24.234375 87.128906 23.972656 86.941406 23.78125 Z M 86.183594 28.542969 C 85.601562 28.542969 85.125 29.015625 85.125 29.597656 C 85.125 30.183594 85.601562 30.652344 86.183594 30.652344 C 86.769531 30.652344 87.246094 30.183594 87.246094 29.597656 C 87.246094 29.015625 86.769531 28.542969 86.183594 28.542969 Z M 91.066406 28.566406 C 90.585938 28.667969 90.222656 29.089844 90.222656 29.597656 C 90.222656 30.183594 90.699219 30.652344 91.285156 30.652344 C 91.570312 30.652344 91.824219 30.542969 92.011719 30.363281 C 91.730469 29.742188 91.417969 29.144531 91.066406 28.566406 Z M 86.183594 33.8125 C 85.601562 33.8125 85.125 34.285156 85.125 34.867188 C 85.125 35.449219 85.601562 35.921875 86.183594 35.921875 C 86.769531 35.921875 87.246094 35.449219 87.246094 34.867188 C 87.246094 34.285156 86.769531 33.8125 86.183594 33.8125 Z M 91.285156 33.8125 C 90.699219 33.8125 90.222656 34.285156 90.222656 34.867188 C 90.222656 35.449219 90.699219 35.921875 91.285156 35.921875 C 91.871094 35.921875 92.347656 35.449219 92.347656 34.867188 C 92.347656 34.285156 91.871094 33.8125 91.285156 33.8125 Z M 86.183594 38.890625 C 85.601562 38.890625 85.125 39.363281 85.125 39.945312 C 85.125 40.527344 85.601562 41 86.183594 41 C 86.769531 41 87.246094 40.527344 87.246094 39.945312 C 87.246094 39.363281 86.769531 38.890625 86.183594 38.890625 Z M 91.285156 38.890625 C 90.699219 38.890625 90.222656 39.363281 90.222656 39.945312 C 90.222656 40.527344 90.699219 41 91.285156 41 C 91.871094 41 92.347656 40.527344 92.347656 39.945312 C 92.347656 39.363281 91.871094 38.890625 91.285156 38.890625 Z M 86.183594 43.96875 C 85.601562 43.96875 85.125 44.441406 85.125 45.023438 C 85.125 45.605469 85.601562 46.082031 86.183594 46.082031 C 86.769531 46.082031 87.246094 45.605469 87.246094 45.023438 C 87.246094 44.441406 86.769531 43.96875 86.183594 43.96875 Z M 91.285156 43.96875 C 90.699219 43.96875 90.222656 44.441406 90.222656 45.023438 C 90.222656 45.605469 90.699219 46.082031 91.285156 46.082031 C 91.871094 46.082031 92.347656 45.605469 92.347656 45.023438 C 92.347656 44.441406 91.871094 43.96875 91.285156 43.96875 Z M 65.402344 90.015625 C 64.992188 90.015625 64.636719 90.25 64.460938 90.589844 L 66.25 91.703125 C 66.382812 91.527344 66.460938 91.308594 66.460938 91.070312 C 66.460938 90.488281 65.988281 90.015625 65.402344 90.015625 Z M 60.304688 84.9375 C 59.957031 84.9375 59.65625 85.101562 59.460938 85.351562 L 60.632812 86.992188 C 61.054688 86.859375 61.363281 86.460938 61.363281 85.992188 C 61.363281 85.410156 60.886719 84.9375 60.304688 84.9375 " fill-opacity="1" fill-rule="nonzero"/></g></svg>